<?xml version="1.0" standalone="no"?><!DOCTYPE svg PUBLIC "-//W3C//DTD SVG 1.1//EN" "http://www.w3.org/Graphics/SVG/1.1/DTD/svg11.dtd"><svg t="1644992582025" class="icon" viewBox="0 0 1024 1024" version="1.1" xmlns="http://www.w3.org/2000/svg" p-id="1332" xmlns:xlink="http://www.w3.org/1999/xlink" width="200" height="200"><defs><style type="text/css"></style></defs><path d="M888 128H768v-28.032a35.968 35.968 0 1 0-72 0V128h-368v-28.032a35.968 35.968 0 1 0-72 0V128H136C96.192 128 64 160.192 64 200v688C64 927.808 96.192 960 136 960h752c39.808 0 72-32.32 72-72V200C960 160.192 927.808 128 888 128zM136 200H256v20.032a35.968 35.968 0 1 0 72 0v-20.032h368v20.032a35.968 35.968 0 1 0 72 0v-20.032h120v112H136v-112z m752 688H136V384h752v504zM288 512h64a32 32 0 1 1 0 64h-64a32 32 0 1 1 0-64z m192 0h64a32 32 0 1 1 0 64h-64a32 32 0 1 1 0-64z m192 0h64a32 32 0 1 1 0 64h-64a32 32 0 1 1 0-64z m-384 193.984h64a32 32 0 1 1 0 64h-64a32 32 0 1 1 0-64z m192 0h64a32 32 0 1 1 0 64h-64a32 32 0 1 1 0-64z" p-id="1333"></path></svg>