<?xml version="1.0" standalone="no"?><!DOCTYPE svg PUBLIC "-//W3C//DTD SVG 1.1//EN" "http://www.w3.org/Graphics/SVG/1.1/DTD/svg11.dtd"><svg t="1635175649285" class="icon" viewBox="0 0 1024 1024" version="1.1" xmlns="http://www.w3.org/2000/svg" p-id="2372" xmlns:xlink="http://www.w3.org/1999/xlink" width="200" height="200"><defs><style type="text/css"></style></defs><path d="M704 832a127.232 127.232 0 0 1 16.896-63.488l-50.304-29.056L512 832l-156.16-91.072-51.52 29.76A127.232 127.232 0 0 1 320 832a128 128 0 0 1-128 128 128 128 0 0 1-128-128 128 128 0 0 1 128-128 127.232 127.232 0 0 1 66.88 19.2L320 687.872V496.256l160-93.312V316.224A128 128 0 0 1 384 192a128 128 0 0 1 128-128 128 128 0 0 1 128 128 128 128 0 0 1-96 123.968v86.72L704 496v188.864l63.424 36.672A127.232 127.232 0 0 1 832 704a128 128 0 0 1 128 128 128 128 0 0 1-128 128 128 128 0 0 1-128-128z m64 0a64 64 0 0 0 64 64 64 64 0 0 0 64-64 64 64 0 0 0-64-64 64 64 0 0 0-64 64zM128 832a64 64 0 0 0 64 64 64 64 0 0 0 64-64 64 64 0 0 0-64-64 64 64 0 0 0-64 64z m256-304v160L512 768l128-80v-160L512 448zM448 192a64 64 0 0 0 64 64 64 64 0 0 0 64-64 64 64 0 0 0-64-64 64 64 0 0 0-64 64z" p-id="2373"></path></svg>