<?xml version="1.0" standalone="no"?><!DOCTYPE svg PUBLIC "-//W3C//DTD SVG 1.1//EN" "http://www.w3.org/Graphics/SVG/1.1/DTD/svg11.dtd"><svg t="1644992565379" class="icon" viewBox="0 0 1024 1024" version="1.1" xmlns="http://www.w3.org/2000/svg" p-id="1035" xmlns:xlink="http://www.w3.org/1999/xlink" width="200" height="200"><defs><style type="text/css"></style></defs><path d="M945.4 154H72.9c-4.8 0-8.7 3.9-8.7 8.7v429.1c0 5.7 4.6 10.3 10.3 10.3h875c6 0 10.8-4.8 10.8-10.8V168.9c0-7.9 0-14.9-14.9-14.9z m-48.2 378.5c0 2.5-2 4.5-4.5 4.5H134.4c-2.9 0-5.2-2.3-5.2-5.2V225.9c0-2.7 2.2-4.9 4.9-4.9h758.2c2.7 0 4.9 2.2 4.9 4.9v306.6z" p-id="1036"></path><path d="M789.6 314.2l-90.3 92.4c-1.8 1.9-4.9 1.9-6.7 0l-90.3-92.4c-11.7-11.6-30.6-11.6-42.2 0.1-11.4 11.5-11.6 30-0.5 41.7l115.1 117.6c11.5 11.8 30.3 12 42.1 0.6l0.6-0.6 115-117.6c11.5-11.8 11.3-30.7-0.5-42.2-11.8-11.6-30.7-11.4-42.3 0.4zM867.9 637.9c-26.2 0-29.4 0-30.7 7.1-0.4 2-0.5 3.9-0.5 5.9v147.6c0 6.4-2.2 8.5-8.5 8.5H193.1c-2.9 0-5.3-2.4-5.3-5.3V650.5c0-10.6-0.5-12.6-31.2-12.6-32.8 0-32.8 0-32.8 11v204.3c0 9.9 8 17.9 17.9 17.9h740.2c10.5 0 19-8.5 19-19V647.9c0-10 0-10-33-10z" p-id="1037"></path><path d="M789.6 314.2l-90.3 92.4c-1.8 1.9-4.9 1.9-6.7 0l-90.3-92.4c-11.7-11.6-30.6-11.6-42.2 0.1-11.4 11.5-11.6 30-0.5 41.7l115.1 117.6c11.5 11.8 30.3 12 42.1 0.6l0.6-0.6 115-117.6c11.5-11.8 11.3-30.7-0.5-42.2-11.8-11.6-30.7-11.4-42.3 0.4z" p-id="1038"></path></svg>